<?xml version="1.0" encoding="utf-8"?>
<!-- Generator: Adobe Illustrator 26.0.3, SVG Export Plug-In . SVG Version: 6.00 Build 0)  -->
<svg version="1.1" id="Layer_1" xmlns="http://www.w3.org/2000/svg" xmlns:xlink="http://www.w3.org/1999/xlink" x="0px" y="0px"
	 viewBox="0 0 1440 4184.7" style="enable-background:new 0 0 1440 4184.7;" xml:space="preserve">
<style type="text/css">
	.st0{fill:none;stroke:#49AD09;}
	.st1{fill:none;stroke:#313131;}
</style>
<g>
	<path class="st0" d="M45.5,1231.6C77,1149.2,109.4,987.3-13,998.1c-153,13.5,6,178,125.5,69.5c119.5-108.5,86-336.5,36-353.5"/>
	<path class="st1" d="M1300.5,3338.6c31.5-82.3,63.9-244.3-58.5-233.5c-153,13.5,6,178,125.5,69.5s86-336.5,36-353.5"/>
	<path class="st0" d="M1391.8,1495.6c-31.1-2.7-59.9-17.5-80.1-41.3l181.1-152.5c20,24,29.7,54.9,27.1,86
		c-2.7,31.3-17.7,60.2-41.7,80.4C1454.2,1488.4,1423.1,1498.3,1391.8,1495.6z"/>
	<path class="st1" d="M28.6,2191.6c31.1-2.7,59.9-17.5,80.1-41.3l-181.1-152.5c-20,24-29.7,54.9-27.1,86
		c2.7,31.3,17.7,60.2,41.7,80.4C-33.7,2184.4-2.7,2194.3,28.6,2191.6z"/>
	<polygon class="st1" points="1414.2,4070.7 1473.9,4105.2 1439.4,4165.6 1379.7,4130.5 	"/>
	<rect x="-2.4" y="3578.7" transform="matrix(0.5 -0.866 0.866 0.5 -3118.3486 1854.1947)" class="st1" width="98" height="98"/>
</g>
<path class="st0" d="M1440,75.9l-62.4,52.6c-20-24-29.7-54.9-27.1-86c1.3-14.9,5.4-29.3,11.9-42.5"/>
</svg>
