<svg width="28" height="32" viewBox="0 0 28 32" fill="none" xmlns="http://www.w3.org/2000/svg">
<path d="M24.2454 5.97178C24.1308 5.96089 21.6839 5.77941 21.6839 5.77941C21.6839 5.77941 19.9832 4.08333 19.797 3.89667C19.6104 3.70896 19.2459 3.76496 19.1038 3.808C19.0836 3.8137 18.733 3.92311 18.1528 4.102C17.5845 2.45985 16.5833 0.950963 14.8208 0.950963C14.7721 0.950963 14.7218 0.953037 14.671 0.956148C14.1701 0.290889 13.5489 0 13.0122 0C8.90607 0 7.89289 5.15978 7.27793 7.78193C5.68193 8.27763 4.45719 11.0066 4.31252 11.0522C3.42119 11.3333 3.3937 11.3613 3.27756 12.2049C3.18785 12.8427 0 28.5818 0 28.5818L18.1596 32.0009L28 29.861C28 29.861 24.5461 6.3923 24.5244 6.23104C24.5026 6.0703 24.3616 5.98111 24.2454 5.97178ZM14.5361 5.04933C14.5361 5.11104 14.5351 5.16911 14.5351 5.2277C13.5354 5.53933 12.4507 5.87637 11.3613 6.216C11.9726 3.84637 13.1175 2.70044 14.1198 2.26852C14.3713 2.90422 14.5361 3.81785 14.5361 5.04933ZM12.8987 1.10756C13.0781 1.10756 13.2554 1.1677 13.4265 1.28644C12.11 1.90815 10.7001 3.47667 10.1039 6.60696C9.23326 6.87763 8.38289 7.14311 7.59526 7.38785C8.29319 4.99904 9.94933 1.10756 12.8987 1.10756ZM13.6064 15.0619C13.6064 15.0619 12.5435 14.4921 11.2415 14.4921C9.33022 14.4921 9.23378 15.6971 9.23378 15.9999C9.23378 17.6566 13.5307 18.2918 13.5307 22.1719C13.5307 25.2249 11.605 27.1901 9.00615 27.1901C5.88881 27.1901 4.29385 25.2399 4.29385 25.2399L5.12815 22.4684C5.12815 22.4684 6.76667 23.8835 8.15111 23.8835C9.05333 23.8835 9.42096 23.1679 9.42096 22.6458C9.42096 20.4846 5.89556 20.3881 5.89556 16.8368C5.89556 13.8496 8.02978 10.9563 12.3397 10.9563C13.9984 10.9563 14.8198 11.4349 14.8198 11.4349L13.6064 15.0619ZM15.6126 4.89274C15.6126 4.78333 15.6136 4.67652 15.6136 4.55881C15.6136 3.53941 15.4721 2.71756 15.246 2.0663C16.1544 2.17985 16.7596 3.21896 17.149 4.41415C16.6932 4.55726 16.1747 4.718 15.6126 4.89274Z" fill="#79B259"/>
</svg>
